<svg aria-hidden="true" style="position:absolute;width:0;height:0;overflow:hidden" xmlns="http://www.w3.org/2000/svg">
  <defs>
    <symbol id="icon-about-icon" viewBox="0 0 32 32">
      <path fill="#5956e9" style="fill:var(--color1, #5956e9)" d="M16 32C7.163 32 0 24.837 0 16S7.163 0 16 0s16 7.163 16 16-7.163 16-16 16zm-1.595-9.6 11.312-11.314-2.262-2.262-9.05 9.051-4.526-4.526-2.262 2.262 6.789 6.789z"/>
    </symbol>
    <symbol id="icon-close-burger" viewBox="0 0 32 32">
      <path d="M16 12.768 27.314 1.454l3.232 3.232L19.232 16l11.314 11.314-3.232 3.232L16 19.232 4.686 30.546l-3.232-3.232L12.768 16 1.454 4.686l3.232-3.232L16 12.768z"/>
    </symbol>
    <symbol id="icon-contacts-mail" viewBox="0 0 32 32">
      <path fill="#fff" style="fill:var(--color2, #fff)" d="M1.882 1.882h28.235a1.568 1.568 0 0 1 1.568 1.568v25.098a1.568 1.568 0 0 1-1.568 1.568H1.882a1.568 1.568 0 0 1-1.568-1.568V3.45a1.568 1.568 0 0 1 1.568-1.568zm14.212 13.621L6.036 6.962 4.005 9.353l12.11 10.282 11.892-10.29-2.052-2.373-9.86 8.532z"/>
    </symbol>
    <symbol id="icon-contacts-tel" viewBox="0 0 32 32">
      <path fill="#fff" style="fill:var(--color2, #fff)" d="M32 23.858v6.286a1.778 1.778 0 0 1-1.653 1.774c-.777.053-1.412.082-1.902.082C12.735 32 .001 19.266.001 3.556c0-.491.027-1.125.082-1.902A1.78 1.78 0 0 1 1.857.001h6.286a.884.884 0 0 1 .885.8c.041.409.078.734.114.981a24.675 24.675 0 0 0 2.148 7.113.81.81 0 0 1-.261 1.008l-3.836 2.741A23.194 23.194 0 0 0 19.36 24.811l2.738-3.829a.821.821 0 0 1 1.018-.265 24.723 24.723 0 0 0 7.111 2.142c.247.036.572.075.978.114a.887.887 0 0 1 .799.885h-.002z"/>
    </symbol>
    <symbol id="icon-download-1" viewBox="0 0 32 32">
      <path fill="#fff" style="fill:var(--color2, #fff)" d="M5.333 25.333h21.333V16h2.667v10.667A1.334 1.334 0 0 1 27.999 28h-24a1.333 1.333 0 0 1-1.334-1.333V16h2.667v9.333zM18.667 12h6.667l-9.333 9.333L6.668 12h6.667V4h5.333v8z"/>
    </symbol>
    <symbol id="icon-download-2" viewBox="0 0 32 32">
      <path fill="#fff" style="fill:var(--color2, #fff)" d="M2.667 12h4v16h-4a1.334 1.334 0 0 1-1.334-1.334V13.333A1.33 1.33 0 0 1 2.667 12zm7.057-1.724 8.533-8.533a.661.661 0 0 1 .872-.062l1.137.853a2.002 2.002 0 0 1 .738 2.093l-1.537 6.04H28a2.668 2.668 0 0 1 2.667 2.667v2.805c0 .349-.068.694-.2 1.016l-4.127 10.02a1.332 1.332 0 0 1-1.233.825h-14.44a1.334 1.334 0 0 1-1.334-1.334V11.218c0-.354.141-.693.391-.943z"/>
    </symbol>
    <symbol id="icon-download-3" viewBox="0 0 32 32">
      <path fill="#fff" style="fill:var(--color2, #fff)" d="M16 24.346 6.596 29.61l2.1-10.571-7.913-7.317 10.703-1.269L16.001.666l4.515 9.787 10.703 1.269-7.913 7.317 2.1 10.571-9.404-5.264z"/>
    </symbol>
    <symbol id="icon-facebook-icon" viewBox="0 0 32 32">
      <path d="M18.4 18.4h4L24 12h-5.6V8.8c0-1.648 0-3.2 3.2-3.2H24V.224C23.478.155 21.509 0 19.429 0 15.085 0 12 2.651 12 7.52V12H7.2v6.4H12V32h6.4V18.4z"/>
    </symbol>
    <symbol id="icon-features-1" viewBox="0 0 32 32">
      <path fill="#fff" style="fill:var(--color2, #fff)" d="M27.312 1.579H4.655A4.3 4.3 0 0 0 .359 5.875v13.866a4.3 4.3 0 0 0 4.281 4.296v6.293l9.042-6.292h13.63a4.3 4.3 0 0 0 4.296-4.297V5.875a4.3 4.3 0 0 0-4.296-4.296zm-4.067 16.114H8.723v-1.831h14.522v1.831zm0-3.906H8.723v-1.831h14.522v1.831zm0-3.906H8.723V8.05h14.522v1.831z"/>
    </symbol>
    <symbol id="icon-features-2" viewBox="0 0 32 32">
      <path fill="#fff" style="fill:var(--color2, #fff)" d="M14.125 16h.938v-.937a.939.939 0 0 0-1.875 0c0 .517.42.937.937.937zM15.063 17.875H12.25a.938.938 0 0 0-.937.937v.938h3.75v-1.875zM18.812 15.063a.938.938 0 0 0-1.875 0V16h.938c.517 0 .937-.42.937-.937zM15.063 21.625h-1.875v3.75h5.625v-3.75h-1.875v.937a.937.937 0 1 1-1.874 0v-.937z"/>
      <path fill="#fff" style="fill:var(--color2, #fff)" d="M0 28.188A2.815 2.815 0 0 0 2.813 31h26.375A2.815 2.815 0 0 0 32 28.188V10.375H0v17.813zm9.438-9.376c0-1.296.886-2.38 2.082-2.704a2.783 2.783 0 0 1-.207-1.046 2.816 2.816 0 0 1 2.812-2.813c.723 0 1.376.282 1.875.731a2.79 2.79 0 0 1 1.875-.731 2.815 2.815 0 0 1 2.812 2.813c0 .37-.076.722-.207 1.046a2.81 2.81 0 0 1 2.082 2.704v1.875a.937.937 0 0 1-.937.938h-.938v4.688a.936.936 0 0 1-.937.937h-7.5a.936.936 0 0 1-.937-.937v-4.688h-.938a.937.937 0 0 1-.937-.938v-1.875z"/>
      <path fill="#fff" style="fill:var(--color2, #fff)" d="M20.688 18.812a.938.938 0 0 0-.937-.937h-2.813v1.875h3.75v-.938zM29.188 1H2.813A2.816 2.816 0 0 0 0 3.813V8.5h32V3.813A2.816 2.816 0 0 0 29.188 1zM4.686 6.625a.938.938 0 1 1 0-1.876.938.938 0 0 1 0 1.876zm3.812 0a.938.938 0 1 1 0-1.876.938.938 0 0 1 0 1.876zm3.75 0a.938.938 0 1 1 0-1.876.938.938 0 0 1 0 1.876zm15.065 0h-5.688a.937.937 0 1 1 0-1.876h5.688c.518 0 .937.419.937.938s-.419.938-.937.938z"/>
    </symbol>
    <symbol id="icon-features-3" viewBox="0 0 32 32">
      <path fill="#fff" style="fill:var(--color2, #fff)" d="M31.063 0H27.25a.937.937 0 0 0-.937.938v.938H18.64C18.252.787 17.221.001 16 .001s-2.252.786-2.64 1.875H5.687V.938A.937.937 0 0 0 4.749 0H.936a.937.937 0 0 0-.938.938v3.75c0 .518.419.938.938.938h3.813a.937.937 0 0 0 .938-.938v-.95h3.85C6.283 5.771 4.138 9.34 3.882 13.339a2.806 2.806 0 0 0-1.945 2.662c0 1.551 1.262 2.812 2.813 2.812s2.813-1.262 2.813-2.812a2.81 2.81 0 0 0-1.809-2.619c.32-4.458 3.43-8.215 7.757-9.287C13.979 5 14.913 5.626 16 5.626S18.021 5 18.489 4.095c4.327 1.072 7.437 4.829 7.757 9.287a2.81 2.81 0 0 0-1.809 2.619c0 1.551 1.262 2.812 2.812 2.812s2.813-1.262 2.813-2.812c0-1.246-.82-2.293-1.945-2.662-.256-3.998-2.402-7.556-5.655-9.588h3.85v.938c0 .518.419.938.937.938h3.813a.937.937 0 0 0 .937-.938V.939a.937.937 0 0 0-.937-.938zM22.378 30.837c-.49-1.501-1.903-2.65-3.566-2.65h-5.625c-1.663 0-3.075 1.149-3.566 2.65-.189.579.303 1.163.912 1.163h10.932c.609 0 1.101-.584.912-1.163z"/>
      <path fill="#fff" style="fill:var(--color2, #fff)" d="M24.28 19.23 16.937 8.216v8.894a2.807 2.807 0 0 1 1.875 2.64c0 1.551-1.262 2.812-2.812 2.812s-2.812-1.262-2.812-2.812c0-1.221.786-2.252 1.875-2.64V8.216L7.721 19.23a.937.937 0 0 0 .117 1.183c1.721 1.721 2.821 3.938 3.246 6.317a5.588 5.588 0 0 1 2.105-.417h5.625c.745 0 1.453.153 2.105.417.425-2.378 1.525-4.595 3.246-6.316a.937.937 0 0 0 .117-1.183z"/>
      <path fill="#fff" style="fill:var(--color2, #fff)" d="M16 18.812a.938.938 0 1 0 .002 1.876.938.938 0 0 0-.002-1.876z"/>
    </symbol>
    <symbol id="icon-features-4" viewBox="0 0 32 32">
      <path fill="#fff" style="fill:var(--color2, #fff)" d="M22.732 0H9.268a2.33 2.33 0 0 0-2.329 2.331v27.34A2.328 2.328 0 0 0 9.268 32h13.464a2.33 2.33 0 0 0 2.329-2.329V2.331A2.331 2.331 0 0 0 22.732 0zM12.678 1.416h6.647c.168 0 .304.251.304.561s-.136.562-.304.562h-6.647c-.169 0-.303-.252-.303-.562s.134-.561.303-.561zm3.323 28.283a1.487 1.487 0 0 1 0-2.974 1.486 1.486 0 0 1 0 2.974zm7.315-5.094H8.685V3.934h14.631v20.671z"/>
    </symbol>
    <symbol id="icon-features-5" viewBox="0 0 32 32">
      <path fill="#fff" style="fill:var(--color2, #fff)" d="M31.871 16.492C28.274 22.863 22.34 26.667 16 26.667S3.727 22.863.129 16.492a1 1 0 0 1 0-.983C3.726 9.137 9.66 5.333 16 5.333s12.273 3.804 15.871 10.175c.172.305.172.679 0 .984zM16 10.667c-2.941 0-5.333 2.392-5.333 5.333s2.392 5.333 5.333 5.333c2.941 0 5.333-2.392 5.333-5.333S18.941 10.667 16 10.667zM30.667 21.333c-.736 0-1.333.597-1.333 1.333v5.333c0 .735-.599 1.333-1.333 1.333h-5.333a1.333 1.333 0 0 0 0 2.666h5.333c2.205 0 4-1.795 4-4v-5.333c0-.736-.597-1.333-1.333-1.333zM1.333 21.333C.597 21.333 0 21.93 0 22.666v5.333c0 2.205 1.795 4 4 4h5.333a1.333 1.333 0 0 0 0-2.666H4A1.335 1.335 0 0 1 2.667 28v-5.333c0-.736-.597-1.333-1.333-1.333zM28 0h-5.333a1.333 1.333 0 0 0 0 2.666H28c.735 0 1.333.599 1.333 1.333v5.333a1.333 1.333 0 0 0 2.666 0V3.999c0-2.205-1.795-4-4-4zM9.333 0H4C1.795 0 0 1.795 0 4v5.333a1.333 1.333 0 0 0 2.666 0V4c0-.735.599-1.333 1.333-1.333h5.333a1.333 1.333 0 0 0 0-2.666z"/>
    </symbol>
    <symbol id="icon-features-6" viewBox="0 0 32 32">
      <path fill="#fff" style="fill:var(--color2, #fff)" d="M9.84 14.256c1.465 3.234 4.603 4.642 6.16 4.642 1.024 0 2.731-.609 4.197-1.945a25.032 25.032 0 0 1-2.176.052 1.784 1.784 0 0 1-1.087.372H15.63c-.983 0-1.782-.8-1.782-1.782s.8-1.782 1.782-1.782h1.304c.471 0 .912.184 1.239.5l.321.002c1.684 0 2.793-.154 3.519-.341a1.95 1.95 0 0 1-.145-.741V8.714c0-.47.175-.921.476-1.269-.161-1.253-.453-2.21-.889-2.916-.899-1.455-2.631-2.132-5.453-2.132-2.34 0-3.957.486-4.941 1.485-.763.775-1.205 1.88-1.412 3.55.308.349.487.805.487 1.282v4.519c0 .376-.108.727-.294 1.024z"/>
      <path fill="#fff" style="fill:var(--color2, #fff)" d="M6.633 14.299h1.565c.589 0 1.067-.478 1.067-1.067V8.713c0-.394-.214-.737-.531-.922C9.083 4.09 10.511 1.526 16 1.526c3.152 0 5.12.809 6.192 2.545.624 1.01.924 2.315 1.065 3.726a1.065 1.065 0 0 0-.522.916v4.519c0 .508.355.932.831 1.04-.69.451-2.117.912-5.074.912-.239 0-.489-.003-.749-.009a.912.912 0 0 0-.81-.493h-1.304a.913.913 0 0 0 0 1.826h1.304c.305 0 .574-.15.74-.379.275.007.543.011.803.011 3.332 0 5.451-.569 6.309-1.697.037-.048.07-.096.1-.143h.482c.589 0 1.067-.478 1.067-1.067V8.714c0-.589-.478-1.067-1.067-1.067h-.588c-.166-1.705-.533-3.156-1.287-4.378C22.133 1.07 19.683.001 16.001.001S9.869 1.07 8.51 3.269C7.755 4.49 7.388 5.942 7.223 7.647h-.588c-.589 0-1.067.478-1.067 1.067v4.519c0 .589.478 1.067 1.067 1.067zM28.898 27.588c-.355-2.206-1.085-5.047-2.55-6.056-.999-.689-4.485-2.552-5.974-3.347l-.031-.017a.487.487 0 0 0-.53.046 6.339 6.339 0 0 1-2.541 1.228.486.486 0 0 0-.349.303l-.922 2.431-.922-2.431a.49.49 0 0 0-.35-.303 6.323 6.323 0 0 1-2.542-1.228.485.485 0 0 0-.53-.046c-1.472.787-5.004 2.688-6.001 3.361-1.687 1.136-2.423 5.247-2.554 6.059a.49.49 0 0 0 .022.24c.06.17 1.607 4.172 12.877 4.172s12.816-4.002 12.877-4.172a.49.49 0 0 0 .022-.24zm-5.247-2.533h-4.463v-.94h4.463v.94z"/>
    </symbol>
    <symbol id="icon-instagram-icon" viewBox="0 0 32 32">
      <path d="M16 0c4.347 0 4.89.016 6.595.096 1.704.08 2.864.347 3.885.744a7.79 7.79 0 0 1 2.835 1.845A7.852 7.852 0 0 1 31.16 5.52c.395 1.019.664 2.181.744 3.885.075 1.706.096 2.248.096 6.595s-.016 4.89-.096 6.595c-.08 1.704-.349 2.864-.744 3.885a7.804 7.804 0 0 1-1.845 2.835 7.873 7.873 0 0 1-2.835 1.845c-1.019.395-2.181.664-3.885.744-1.706.075-2.248.096-6.595.096s-4.89-.016-6.595-.096c-1.704-.08-2.864-.349-3.885-.744a7.83 7.83 0 0 1-2.835-1.845A7.852 7.852 0 0 1 .84 26.48c-.397-1.019-.664-2.181-.744-3.885C.021 20.889 0 20.347 0 16s.016-4.89.096-6.595C.176 7.699.443 6.541.84 5.52a7.796 7.796 0 0 1 1.845-2.835A7.83 7.83 0 0 1 5.52.84C6.541.443 7.699.176 9.405.096 11.111.021 11.653 0 16 0zm0 8a8 8 0 1 0 0 16 8 8 0 0 0 0-16zm10.4-.4a2 2 0 1 0-4.001.001A2 2 0 0 0 26.4 7.6zM16 11.2a4.8 4.8 0 1 1 0 9.6 4.8 4.8 0 0 1 0-9.6z"/>
    </symbol>
    <symbol id="icon-mail-send-icon" viewBox="0 0 32 32">
      <path fill="#fff" style="fill:var(--color2, #fff)" d="M1.455 17.454h8.727v-2.909H1.455V1.23a.721.721 0 0 1 .358-.626.73.73 0 0 1 .721-.011l26.854 14.769a.727.727 0 0 1 0 1.274L2.534 31.405a.726.726 0 0 1-.983-.277.724.724 0 0 1-.096-.36V17.453z"/>
    </symbol>
    <symbol id="icon-slider-arrow" viewBox="0 0 32 32">
      <path d="M18.219 16 6.433 4.214 9.8.847l15.152 15.152L9.8 31.151l-3.367-3.367 11.786-11.786z"/>
    </symbol>
    <symbol id="icon-twitter-icon" viewBox="0 0 32 32">
      <path d="M30.781 6.772a12.195 12.195 0 0 1-3.494.957 6.1 6.1 0 0 0 2.676-3.366A12.15 12.15 0 0 1 26.1 5.839a6.084 6.084 0 0 0-10.366 5.547A17.267 17.267 0 0 1 3.196 5.03a6.054 6.054 0 0 0-.823 3.059 6.082 6.082 0 0 0 2.705 5.063 6.053 6.053 0 0 1-2.755-.761v.076a6.091 6.091 0 0 0 4.88 5.965 6.124 6.124 0 0 1-2.749.105 6.088 6.088 0 0 0 5.683 4.225 12.209 12.209 0 0 1-9.005 2.519 17.213 17.213 0 0 0 9.324 2.735c11.19 0 17.309-9.27 17.309-17.309 0-.262-.007-.527-.019-.785a12.367 12.367 0 0 0 3.036-3.149l-.001-.001z"/>
    </symbol>
    <symbol id="icon-video-icon" viewBox="0 0 32 32">
      <path d="M0 1.765C0 .791.791 0 1.765 0h28.469c.974 0 1.765.791 1.765 1.765v28.469a1.763 1.763 0 0 1-1.765 1.765H1.765a1.769 1.769 0 0 1-1.766-1.765V1.765zm13.55 7.862c-.107-.071-.231-.112-.36-.119s-.256.022-.37.083a.71.71 0 0 0-.377.626v11.566a.711.711 0 0 0 1.107.59l8.674-5.781a.707.707 0 0 0 .317-.592.718.718 0 0 0-.317-.592L13.55 9.627z"/>
    </symbol>
    <symbol id="icon-youtube-icon" viewBox="0 0 32 32">
      <path d="M31.269 7.197C32 10.048 32 16 32 16s0 5.952-.731 8.803c-.406 1.576-1.595 2.816-3.101 3.235C25.434 28.8 16 28.8 16 28.8s-9.429 0-12.168-.762c-1.512-.426-2.699-1.664-3.101-3.235C0 21.952 0 16 0 16s0-5.952.731-8.803c.406-1.576 1.595-2.816 3.101-3.235C6.571 3.2 16 3.2 16 3.2s9.434 0 12.168.762c1.512.426 2.699 1.664 3.101 3.235zM12.8 21.6l9.6-5.6-9.6-5.6v11.2z"/>
    </symbol>
  </defs>
</svg>
